<svg width="20" height="21" viewBox="0 0 20 21" fill="none" xmlns="http://www.w3.org/2000/svg">
<path fill-rule="evenodd" clip-rule="evenodd" d="M15.4719 9.01554C15.4719 12.7889 12.4756 15.7811 8.86095 15.7811C5.24634 15.7811 2.24998 12.7889 2.24998 9.01554C2.24998 5.24218 5.24634 2.24998 8.86095 2.24998C12.4756 2.24998 15.4719 5.24218 15.4719 9.01554ZM13.7478 16.5373C12.3469 17.4813 10.667 18.0311 8.86095 18.0311C3.96718 18.0311 0 13.9947 0 9.01554C0 4.0364 3.96718 0 8.86095 0C13.7547 0 17.7219 4.0364 17.7219 9.01554C17.7219 11.064 17.0504 12.9529 15.9192 14.4668L18.9486 17.549C19.5293 18.1398 19.521 19.0895 18.9302 19.6702C18.3394 20.2509 17.3897 20.2427 16.809 19.6519L13.7478 16.5373Z" fill="white" fill-opacity="0.51"/>
</svg>
